<svg id="Group_88" data-name="Group 88" xmlns="http://www.w3.org/2000/svg" xmlns:xlink="http://www.w3.org/1999/xlink" viewBox="0 0 36.863 37.911">
  <defs>
    <clipPath id="clip-path">
      <rect id="Rectangle_159" data-name="Rectangle 159" width="36.863" height="100" fill="currentColor" />
    </clipPath>
  </defs>
  <g id="Group_88-2" data-name="Group 88" clip-path="url(#clip-path)">
    <path id="Path_33" data-name="Path 33" d="M0,32.709V5.214l.09-.522A5.7,5.7,0,0,1,4.769.09C5,.055,5.235.029,5.467,0H31.412c.033.01.066.019.1.026.317.046.64.069.951.138a5.691,5.691,0,0,1,4.4,5.5V32.281a5.108,5.108,0,0,1-.091.972,5.688,5.688,0,0,1-5.655,4.657H5.742a6.192,6.192,0,0,1-.693-.041,5.681,5.681,0,0,1-4.9-4.359c-.063-.266-.1-.54-.152-.8m.953-9.864v9.239a5.786,5.786,0,0,0,.086.988,4.736,4.736,0,0,0,4.6,3.869h25.47a5.5,5.5,0,0,0,.8-.059,4.732,4.732,0,0,0,3.986-4.63V5.676a4.364,4.364,0,0,0-.046-.645A4.738,4.738,0,0,0,31.14.975H5.718a4.914,4.914,0,0,0-1.2.149A4.735,4.735,0,0,0,.953,5.748q0,8.551,0,17.1" transform="translate(0 0.001)" fill="currentColor" />
    <path id="Path_34" data-name="Path 34" d="M62.832,70.687a7.443,7.443,0,0,0-1.315,1.976c-.941,1.6-1.852,3.211-2.766,4.816a4.585,4.585,0,0,0-.59,1.688,2.166,2.166,0,0,0,1.047,2.264,4.444,4.444,0,0,0,1.358.537c.069.017.163.061.185.117A3.911,3.911,0,0,0,62.259,83.7a17.775,17.775,0,0,0,2.865,1.589l1,.473a.238.238,0,0,1,.11.094H58.04a3.474,3.474,0,0,1-3.468-3.476V61.444a3.478,3.478,0,0,1,3.458-3.458H78.54A3.469,3.469,0,0,1,82,61.444V82.415a3.465,3.465,0,0,1-3.426,3.441H70.735a.241.241,0,0,1-.124-.031c.187-.09.371-.178.557-.27A16.145,16.145,0,0,0,73.885,84q.813-.627,1.605-1.287a.731.731,0,0,0,.211-.359.537.537,0,0,1,.419-.405,5.731,5.731,0,0,0,.951-.37,2.51,2.51,0,0,0,1.4-1.709,1.988,1.988,0,0,0-.236-1.416c-.763-1.4-1.523-2.8-2.3-4.2-.642-1.155-1.3-2.3-1.957-3.444a.432.432,0,0,1-.057-.328,6.2,6.2,0,0,0,.14-.824A1.632,1.632,0,0,0,74,69.082a2.581,2.581,0,0,0-.6-1.044,1.986,1.986,0,0,0-2.356-.448,12.016,12.016,0,0,1-1.6.58,4.947,4.947,0,0,1-3.734-.512,1.9,1.9,0,0,0-1.482-.237,1.773,1.773,0,0,0-.774.441A3.988,3.988,0,0,0,62.59,69.1a1.4,1.4,0,0,0,.172,1.482.455.455,0,0,0,.07.109M59.039,60.162a6.545,6.545,0,0,0-3.166,4.506l1.162-.641c-.025.107-.037.163-.051.219a8.705,8.705,0,0,0-.247,3.022,8.38,8.38,0,0,0,2.6,5.1.163.163,0,0,0,.146.025,3.774,3.774,0,0,0,2.2-4.349c-.056.022-.109.041-.161.063-.324.14-.648.277-.969.421a.142.142,0,0,1-.2-.035l0-.007c-.094-.124-.2-.232-.291-.353a3.8,3.8,0,0,1-.752-3.571.651.651,0,0,0-.041-.5q-.109-.219-.214-.44a.938.938,0,0,1-.038-.123l.124.04c1.474.532,2.924,1.12,4.347,1.778A14.687,14.687,0,0,0,65.213,66a1.2,1.2,0,0,0,1.539-.648l.075-.137a1.045,1.045,0,0,1,.006.111l-.062.882a.84.84,0,0,0,.273.709,2.182,2.182,0,0,0,1.011.556,1.32,1.32,0,0,0,1.535-.709,2.488,2.488,0,0,0,.2-.6c.048-.232.057-.473.083-.722.068.085.123.166.191.24a1.147,1.147,0,0,0,1.221.389,3.67,3.67,0,0,0,.617-.221c1.8-.824,3.62-1.614,5.477-2.307.051-.018.1-.033.191-.063-.1.2-.183.371-.273.527a.578.578,0,0,0-.043.511,3.376,3.376,0,0,1,.13,1.744,5.107,5.107,0,0,1-1.1,2.208.177.177,0,0,1-.157.027c-.341-.123-.679-.247-1.019-.38l-.254-.093v1.952a.935.935,0,0,0,.289.724c.451.42.887.855,1.33,1.283.2.189.394.371.594.563a8.083,8.083,0,0,0,2.419-8.58l1.22.677a6.808,6.808,0,0,0-3.128-4.511c.206-.264.4-.521.6-.764a.172.172,0,0,0-.02-.283l-3.592,1.289c.033-.33.064-.624.1-.942-.052.027-.08.041-.106.056l-4.1,2.519c-.559.345-1.111.708-1.672,1.047a.967.967,0,0,1-1.05-.014q-.371-.221-.734-.463a41.377,41.377,0,0,0-4.079-2.508c-.351-.18-.711-.345-1.1-.529l.3.889L58.5,59.084c-.14.124-.124.226-.017.353.19.233.361.477.555.725" transform="translate(-49.795 -52.91)" fill="currentColor" />
    <path id="Path_35" data-name="Path 35" d="M157.8,306.62a9.357,9.357,0,0,1,2.254-.783,8.969,8.969,0,0,1,3.294-.116,12.513,12.513,0,0,1,3.222,1.032,9.337,9.337,0,0,1-4.4.965,11.61,11.61,0,0,1-4.37-1.1" transform="translate(-143.992 -278.869)" fill="currentColor" />
    <path id="Path_36" data-name="Path 36" d="M114.112,271.454c-.179-.124-.169-.321-.2-.494,0-.021.039-.058.069-.073,1.4-.725,2.748-1.555,4.217-2.141a11.249,11.249,0,0,1,9.426.414c.929.458,1.831.968,2.76,1.428a1.053,1.053,0,0,1,.553.773c-.053-.031-.091-.051-.124-.074a17.582,17.582,0,0,0-5-2.291,12.7,12.7,0,0,0-8.585.708,17.985,17.985,0,0,0-2.9,1.619c-.075.041-.146.091-.217.132" transform="translate(-103.943 -244.456)" fill="currentColor" />
    <path id="Path_37" data-name="Path 37" d="M228.814,182.014a1.675,1.675,0,0,1,.755-1.308,2.057,2.057,0,0,1,.948-.314.6.6,0,0,1,.37.14c.256.2.494.426.741.646-.052.123-.1.231-.152.336a.189.189,0,0,1-.117.086c-.84.14-1.678.273-2.545.414" transform="translate(-208.786 -164.603)" fill="currentColor" />
    <path id="Path_38" data-name="Path 38" d="M166.485,182.089a3.239,3.239,0,0,1-.18.293.163.163,0,0,1-.124.058c-.677-.091-1.358-.18-2.027-.29a1.675,1.675,0,0,1-.479-.193.217.217,0,0,1-.091-.172.667.667,0,0,1,.425-.672c.079-.027.154-.065.232-.1a.806.806,0,0,1,.85.067c.459.335.924.668,1.394,1.008" transform="translate(-149.264 -165.088)" fill="currentColor" />
  </g>
</svg>