<svg xmlns="http://www.w3.org/2000/svg" width="29.851" height="37" viewBox="0 0 29.851 37">
  <g id="logo" transform="translate(0.29)">
    <path id="Path_8" data-name="Path 8" d="M-.29,32.789V4.223L-.217,3.8A4.618,4.618,0,0,1,3.572.074C3.76.045,3.949.024,4.137,0H25.146a.836.836,0,0,0,.081.021c.257.037.518.056.77.112a4.608,4.608,0,0,1,3.563,4.45q0,13.93,0,27.859a4.138,4.138,0,0,1-.074.787A4.606,4.606,0,0,1,24.907,37Q14.634,37,4.36,37a5.009,5.009,0,0,1-.561-.033A4.6,4.6,0,0,1-.167,33.437C-.218,33.222-.25,33-.29,32.789ZM.482,18.5q0,6.892,0,13.783a4.689,4.689,0,0,0,.07.8,3.835,3.835,0,0,0,3.728,3.133q10.312,0,20.625,0a4.447,4.447,0,0,0,.649-.048,3.832,3.832,0,0,0,3.228-3.749q0-13.911,0-27.822a3.529,3.529,0,0,0-.037-.522A3.837,3.837,0,0,0,24.926.79q-10.293,0-20.586,0a3.988,3.988,0,0,0-.973.121A3.834,3.834,0,0,0,.482,4.655Q.481,11.579.482,18.5Z" fill="#ffeb3b"/>
    <path id="Path_9" data-name="Path 9" d="M85.729,94.53a6.026,6.026,0,0,0-1.065,1.6c-.762,1.292-1.5,2.6-2.24,3.9a3.714,3.714,0,0,0-.478,1.367,1.754,1.754,0,0,0,.848,1.833,3.6,3.6,0,0,0,1.1.435c.056.014.132.049.15.095a3.167,3.167,0,0,0,1.221,1.309,14.388,14.388,0,0,0,2.32,1.287l.808.383a.193.193,0,0,1,.089.076H88.36q-3.256,0-6.512,0A2.813,2.813,0,0,1,79.04,104V87.045a2.816,2.816,0,0,1,2.8-2.8H98.448a2.809,2.809,0,0,1,2.8,2.8q0,8.491,0,16.982a2.806,2.806,0,0,1-2.774,2.786c-2.115,0-4.231,0-6.346,0a.194.194,0,0,1-.1-.025c.151-.073.3-.144.451-.219a13.069,13.069,0,0,0,2.2-1.262q.658-.508,1.3-1.042a.592.592,0,0,0,.171-.291.435.435,0,0,1,.339-.328,4.641,4.641,0,0,0,.77-.3,2.032,2.032,0,0,0,1.137-1.384,1.61,1.61,0,0,0-.191-1.147c-.618-1.133-1.233-2.268-1.86-3.4-.52-.935-1.054-1.861-1.585-2.789a.35.35,0,0,1-.046-.266,5.016,5.016,0,0,0,.113-.667,1.322,1.322,0,0,0-.054-.463,2.091,2.091,0,0,0-.488-.845,1.608,1.608,0,0,0-1.908-.363,9.738,9.738,0,0,1-1.293.47,4.006,4.006,0,0,1-3.024-.415,1.535,1.535,0,0,0-1.2-.192,1.435,1.435,0,0,0-.627.357,3.227,3.227,0,0,0-.7,1,1.13,1.13,0,0,0,.139,1.2C85.686,94.467,85.7,94.5,85.729,94.53Zm-3.072-8.523a5.3,5.3,0,0,0-2.564,3.649l.941-.519c-.02.087-.03.132-.041.177a7.047,7.047,0,0,0-.2,2.447,6.785,6.785,0,0,0,2.107,4.127.132.132,0,0,0,.118.02,3.056,3.056,0,0,0,1.78-3.522c-.045.018-.088.033-.13.051-.262.113-.525.224-.785.341a.115.115,0,0,1-.164-.034c-.076-.1-.16-.188-.236-.286a3.075,3.075,0,0,1-.609-2.892.527.527,0,0,0-.033-.405q-.088-.177-.173-.356a.762.762,0,0,1-.031-.1l.1.032c1.194.431,2.368.907,3.52,1.44a11.886,11.886,0,0,0,1.4.556.973.973,0,0,0,1.246-.525l.061-.111a.848.848,0,0,1,.005.09q-.025.357-.05.714a.68.68,0,0,0,.221.574,1.766,1.766,0,0,0,.819.45,1.069,1.069,0,0,0,1.243-.574,2.014,2.014,0,0,0,.159-.483c.039-.188.046-.383.067-.585.055.069.1.134.155.194a.929.929,0,0,0,.989.315,2.976,2.976,0,0,0,.5-.179c1.46-.667,2.931-1.307,4.435-1.868.041-.015.083-.027.155-.051-.084.163-.148.3-.221.427a.468.468,0,0,0-.035.414,2.734,2.734,0,0,1,.105,1.412,4.135,4.135,0,0,1-.893,1.788.143.143,0,0,1-.127.022c-.276-.1-.55-.2-.825-.308l-.206-.075c0,.541,0,1.061,0,1.581a.757.757,0,0,0,.234.586c.365.34.718.692,1.077,1.039.158.153.319.3.481.456a6.545,6.545,0,0,0,1.959-6.948l.988.548a5.513,5.513,0,0,0-2.533-3.653c.167-.214.322-.422.489-.619a.139.139,0,0,0-.016-.229l-2.909,1.044c.027-.267.052-.505.079-.763-.042.022-.065.033-.086.045q-1.661,1.02-3.322,2.04c-.453.279-.9.573-1.354.848a.783.783,0,0,1-.85-.011q-.3-.179-.594-.375A33.5,33.5,0,0,0,85.8,85.932c-.284-.146-.576-.279-.887-.428l.244.72-2.935-1.09c-.113.1-.1.183-.014.286C82.362,85.609,82.5,85.806,82.657,86.007Z" transform="translate(-75.462 -80.135)" fill="#ffeb3b"/>
    <path id="Path_10" data-name="Path 10" d="M82.53,667.4V666.31H96.765V667.4Z" transform="translate(-78.782 -633.822)" fill="#ffeb3b"/>
    <path id="Path_11" data-name="Path 11" d="M229.12,445.031a7.581,7.581,0,0,1,1.825-.634,7.262,7.262,0,0,1,2.667-.094,10.132,10.132,0,0,1,2.609.836,7.561,7.561,0,0,1-3.562.781A9.4,9.4,0,0,1,229.12,445.031Z" transform="translate(-218.225 -422.56)" fill="#ffeb3b"/>
    <path id="Path_12" data-name="Path 12" d="M228.818,581.13c-.13.892-.26,1.784-.391,2.683h-.768q-.169-1.353-.338-2.708h-.02v2.705h-.6V580.35h1.043l.309,2.609.026,0c.022-.174.045-.349.066-.523.078-.669.155-1.338.238-2.006,0-.034.057-.088.087-.088.315-.006.63,0,.958,0v3.473h-.587v-2.682Z" transform="translate(-215.923 -552.044)" fill="#ffeb3b"/>
    <path id="Path_13" data-name="Path 13" d="M166.86,583.985h-.591v-2.714l-.016,0-.4,2.716h-.768q-.167-1.344-.335-2.683h-.025v2.678h-.6v-3.46h1.043q.157,1.32.313,2.646l.02,0,.314-2.649h1.04Z" transform="translate(-156.403 -552.215)" fill="#ffeb3b"/>
    <path id="Path_14" data-name="Path 14" d="M165.447,392.233c-.145-.1-.137-.26-.16-.4,0-.017.032-.047.056-.059,1.134-.587,2.225-1.259,3.415-1.734a9.109,9.109,0,0,1,7.633.335c.752.371,1.483.784,2.235,1.156a.853.853,0,0,1,.448.626c-.043-.025-.074-.041-.1-.06a14.238,14.238,0,0,0-4.047-1.855,10.284,10.284,0,0,0-6.952.573,14.559,14.559,0,0,0-2.352,1.311C165.562,392.159,165.505,392.2,165.447,392.233Z" transform="translate(-157.503 -370.371)" fill="#ffeb3b"/>
    <path id="Path_15" data-name="Path 15" d="M492.471,580.5h.608v3.473c-.3,0-.605,0-.906,0-.024,0-.062-.06-.069-.1-.121-.667-.239-1.334-.358-2-.027-.15-.055-.3-.089-.45v2.544h-.6V580.5h.97c.154.855.309,1.716.464,2.576h.022C492.5,582.222,492.486,581.369,492.471,580.5Z" transform="translate(-467.393 -552.196)" fill="#ffeb3b"/>
    <path id="Path_16" data-name="Path 16" d="M329.956,581.422v2.589h-.586v-3.46h.962q.224,1.25.449,2.5h.033c-.014-.828-.027-1.657-.041-2.5h.611v3.464h-.964Q330.189,582.726,329.956,581.422Z" transform="translate(-313.587 -552.244)" fill="#ffeb3b"/>
    <path id="Path_17" data-name="Path 17" d="M451.835,581.328q0,.518,0,1.036c0,.48-.169.685-.646.727a2.5,2.5,0,0,1-.67-.044.484.484,0,0,1-.393-.45,2,2,0,0,1-.02-.28q0-.972,0-1.944a2.449,2.449,0,0,1,.018-.28.521.521,0,0,1,.429-.493,1.734,1.734,0,0,1,.823,0,.493.493,0,0,1,.441.492c.019.412,0,.826,0,1.239Zm-1.032-.011c0,.333,0,.666,0,1,0,.148.036.188.16.19s.177-.037.178-.177q.005-1,0-2c0-.146-.045-.173-.19-.174s-.149.083-.148.186Q450.8,580.831,450.8,581.317Z" transform="translate(-428.434 -551.291)" fill="#ffeb3b"/>
    <path id="Path_18" data-name="Path 18" d="M290.5,580.5v.141c0,.806,0,1.611,0,2.417a2.68,2.68,0,0,1-.051.507.459.459,0,0,1-.409.4,3.866,3.866,0,0,1-.773,0,.478.478,0,0,1-.421-.436,1.828,1.828,0,0,1-.031-.317q0-1.3,0-2.609c0-.033,0-.067.006-.107h.659v.152q0,1.209,0,2.417a1.039,1.039,0,0,0,.007.166.152.152,0,0,0,.166.142.146.146,0,0,0,.167-.138,1.23,1.23,0,0,0,.008-.153q0-1.209,0-2.417V580.5Z" transform="translate(-275.002 -552.196)" fill="#ffeb3b"/>
    <path id="Path_19" data-name="Path 19" d="M84.4,581h-.66c0-.133,0-.26,0-.386a.145.145,0,0,0-.159-.17c-.155-.005-.2.02-.217.15a.75.75,0,0,0-.007.115q0,.934,0,1.868a.206.206,0,0,0,.328.189.13.13,0,0,0,.053-.092c.006-.14,0-.281,0-.422,0-.033,0-.067,0-.106l-.184-.014v-.647h.823a.182.182,0,0,1,.013.05c0,.427.007.853-.011,1.279a.5.5,0,0,1-.524.555,3.062,3.062,0,0,1-.661-.008.551.551,0,0,1-.524-.613q-.01-1.132,0-2.265a.566.566,0,0,1,.577-.62,3.18,3.18,0,0,1,.6,0,.522.522,0,0,1,.514.468C84.389,580.551,84.383,580.773,84.4,581Z" transform="translate(-78.904 -551.579)" fill="#ffeb3b"/>
    <path id="Path_20" data-name="Path 20" d="M121.624,582.975c-.024.234-.053.462-.069.691-.007.1-.034.143-.142.138-.178-.009-.357,0-.553,0,.021-.184.039-.356.061-.527.118-.947.238-1.894.353-2.842.01-.086.039-.115.126-.114.319,0,.639,0,.975,0,.146,1.158.292,2.309.439,3.48-.219,0-.427,0-.633,0-.021,0-.054-.066-.059-.1-.029-.236-.051-.474-.076-.716Zm.366-.615c-.047-.472-.093-.936-.139-1.4h-.031q-.068.7-.137,1.4Z" transform="translate(-115.243 -552.024)" fill="#ffeb3b"/>
    <path id="Path_21" data-name="Path 21" d="M392.124,666.39v1.08H388.16v-1.08Z" transform="translate(-369.51 -633.898)" fill="#ffeb3b"/>
    <path id="Path_22" data-name="Path 22" d="M396.4,580.5v.621h-.455v2.845h-.674v-2.839h-.453V580.5Z" transform="translate(-375.845 -552.196)" fill="#ffeb3b"/>
    <path id="Path_23" data-name="Path 23" d="M377.28,580.53h.654v3.464h-.654Z" transform="translate(-359.161 -552.225)" fill="#ffeb3b"/>
    <path id="Path_24" data-name="Path 24" d="M431.15,580.52h.654v3.464h-.654Z" transform="translate(-410.404 -552.215)" fill="#ffeb3b"/>
    <path id="Path_25" data-name="Path 25" d="M332.33,263.539a1.356,1.356,0,0,1,.611-1.059,1.666,1.666,0,0,1,.768-.254.484.484,0,0,1,.3.113c.207.162.4.345.6.523-.042.1-.077.187-.123.272a.153.153,0,0,1-.095.07C333.711,263.317,333.032,263.425,332.33,263.539Z" transform="translate(-316.402 -249.44)" fill="#ffeb3b"/>
    <path id="Path_26" data-name="Path 26" d="M239.837,263.962a2.616,2.616,0,0,1-.146.237.132.132,0,0,1-.1.047c-.548-.074-1.1-.146-1.641-.235a1.359,1.359,0,0,1-.388-.156.176.176,0,0,1-.074-.139.54.54,0,0,1,.344-.544c.064-.022.125-.053.188-.08a.653.653,0,0,1,.688.054C239.08,263.417,239.456,263.687,239.837,263.962Z" transform="translate(-226.182 -250.195)" fill="#ffeb3b"/>
    <path id="Path_27" data-name="Path 27" d="M495.17,669.664v-.781a3,3,0,0,1,1.923.383A3.168,3.168,0,0,1,495.17,669.664Z" transform="translate(-471.303 -636.229)" fill="#ffeb3b"/>
    <path id="Path_28" data-name="Path 28" d="M481.47,669.44h.612v.794h-.612Z" transform="translate(-458.271 -636.8)" fill="#ffeb3b"/>
    <path id="Path_29" data-name="Path 29" d="M470.33,667.281V666.17c.159.048.308.089.453.139.021.007.039.054.039.082,0,.221,0,.442,0,.663a.122.122,0,0,1-.064.091C470.623,667.194,470.485,667.233,470.33,667.281Z" transform="translate(-447.674 -633.689)" fill="#ffeb3b"/>
    <path id="Path_30" data-name="Path 30" d="M376.61,666.62h.131v1.073l-.131.007Z" transform="translate(-358.523 -634.117)" fill="#ffeb3b"/>
    <path id="Path_31" data-name="Path 31" d="M383.989,666.47v1.075a.21.21,0,0,1-.156-.221c.009-.2.008-.41,0-.614A.241.241,0,0,1,383.989,666.47Z" transform="translate(-365.394 -633.974)" fill="#ffeb3b"/>
    <path id="Path_32" data-name="Path 32" d="M380.34,669.852v-.832h.125v.832Z" transform="translate(-362.071 -636.4)" fill="#ffeb3b"/>
  </g>
</svg>
