<svg xmlns="http://www.w3.org/2000/svg" width="26.682" height="26.676" viewBox="0 0 26.682 26.676">
  <title>Gammunition Instagram</title>
  <path d="M13.269,38.324a6.839,6.839,0,1,0,6.839,6.839A6.829,6.829,0,0,0,13.269,38.324Zm0,11.286a4.447,4.447,0,1,1,4.447-4.447,4.455,4.455,0,0,1-4.447,4.447Zm8.715-11.566a1.6,1.6,0,1,1-1.6-1.6A1.592,1.592,0,0,1,21.984,38.044Zm4.53,1.619a7.9,7.9,0,0,0-2.155-5.589,7.947,7.947,0,0,0-5.589-2.155c-2.2-.125-8.8-.125-11.006,0a7.935,7.935,0,0,0-5.589,2.149A7.921,7.921,0,0,0,.019,39.657c-.125,2.2-.125,8.8,0,11.006a7.9,7.9,0,0,0,2.155,5.589,7.957,7.957,0,0,0,5.589,2.155c2.2.125,8.8.125,11.006,0a7.9,7.9,0,0,0,5.589-2.155,7.947,7.947,0,0,0,2.155-5.589C26.639,48.461,26.639,41.865,26.514,39.663ZM23.668,53.027a4.5,4.5,0,0,1-2.536,2.536c-1.756.7-5.923.536-7.863.536s-6.113.155-7.863-.536A4.5,4.5,0,0,1,2.87,53.027c-.7-1.756-.536-5.923-.536-7.863S2.18,39.05,2.87,37.3a4.5,4.5,0,0,1,2.536-2.536c1.756-.7,5.923-.536,7.863-.536s6.113-.155,7.863.536A4.5,4.5,0,0,1,23.668,37.3c.7,1.756.536,5.923.536,7.863S24.365,51.276,23.668,53.027Z" transform="translate(0.075 -31.825)" fill="currentColor" />
</svg>