<svg xmlns="http://www.w3.org/2000/svg" height="25" viewBox="0 0 37.94 26.676">
  <title>Gammunition Youtube</title>
  <path d="M52.08,68.174A4.767,4.767,0,0,0,48.726,64.8C45.767,64,33.9,64,33.9,64s-11.864,0-14.823.8a4.767,4.767,0,0,0-3.354,3.376c-.793,2.978-.793,9.191-.793,9.191s0,6.213.793,9.191a4.7,4.7,0,0,0,3.354,3.322c2.959.8,14.823.8,14.823.8s11.864,0,14.823-.8a4.7,4.7,0,0,0,3.354-3.322c.793-2.978.793-9.191.793-9.191S52.873,71.152,52.08,68.174ZM30.023,83.006V71.724l9.916,5.641Z" transform="translate(-14.933 -64)" fill="currentColor" />
</svg>